<?xml version="1.0" encoding="UTF-8" standalone="no"?>
<!-- Created with Inkscape (http://www.inkscape.org/) -->

<svg
   xmlns:dc="http://purl.org/dc/elements/1.1/"
   xmlns:cc="http://creativecommons.org/ns#"
   xmlns:rdf="http://www.w3.org/1999/02/22-rdf-syntax-ns#"
   xmlns:svg="http://www.w3.org/2000/svg"
   xmlns="http://www.w3.org/2000/svg"
   xmlns:sodipodi="http://sodipodi.sourceforge.net/DTD/sodipodi-0.dtd"
   xmlns:inkscape="http://www.inkscape.org/namespaces/inkscape"
   width="156"
   height="179"
   id="svg2"
   version="1.1"
   inkscape:version="0.48.1 r9760"
   sodipodi:docname="ouroboros.svg"
   inkscape:export-filename="/Users/richard_towers/Sites/WRATH/img/ouroboros.png"
   inkscape:export-xdpi="9.2307692"
   inkscape:export-ydpi="9.2307692">
  <defs
     id="defs4" />
  <sodipodi:namedview
     id="base"
     pagecolor="#ffffff"
     bordercolor="#666666"
     borderopacity="1.0"
     inkscape:pageopacity="0.0"
     inkscape:pageshadow="2"
     inkscape:zoom="1.4"
     inkscape:cx="147.78531"
     inkscape:cy="123.43598"
     inkscape:document-units="px"
     inkscape:current-layer="layer1"
     showgrid="false"
     fit-margin-top="0"
     fit-margin-left="0"
     fit-margin-right="0"
     fit-margin-bottom="0"
     inkscape:window-width="1280"
     inkscape:window-height="707"
     inkscape:window-x="0"
     inkscape:window-y="0"
     inkscape:window-maximized="0" />
  <metadata
     id="metadata7">
    <rdf:RDF>
      <cc:Work
         rdf:about="">
        <dc:format>image/svg+xml</dc:format>
        <dc:type
           rdf:resource="http://purl.org/dc/dcmitype/StillImage" />
        <dc:title />
      </cc:Work>
    </rdf:RDF>
  </metadata>
  <g
     inkscape:label="Layer 1"
     inkscape:groupmode="layer"
     id="layer1"
     transform="translate(-227.21469,-320.35891)">
    <g
       id="g3027"
       transform="translate(-40.142857,63.571429)">
      <path
         id="path3015"
         d="m 339.04598,411.47104 c -2.2646,-3.47584 -4.11746,-6.62584 -4.11746,-7 0,-0.37415 3.825,-0.68028 8.5,-0.68028 4.675,0 8.5,0.19901 8.5,0.44225 0,0.57115 -8.1364,13.55775 -8.49424,13.55775 -0.14896,0 -2.1237,-2.84387 -4.3883,-6.31972 z"
         style="fill:#ff0000"
         inkscape:connector-curvature="0" />
      <path
         id="path3013"
         d="m 314.27002,385.32604 c 4.48717,-7.9556 8.40999,-14.4806 8.71737,-14.5 0.30738,-0.0194 1.43238,0.60943 2.5,1.3974 1.55582,1.14829 1.69301,1.68424 0.69113,2.7 -1.92298,1.94962 -1.60239,3.03012 3.48645,11.75066 3.7172,6.37002 5.22355,8.11666 7,8.11666 1.74779,0 2.26355,0.56964 2.26355,2.5 l 0,2.5 -16.4085,0 -16.40851,0 z"
         style="fill:#ff0000"
         inkscape:connector-curvature="0" />
      <path
         id="path3011"
         d="m 347.92852,397.29076 c 0,-2.05471 0.48982,-2.50433 2.75,-2.52432 2.40237,-0.0212 3.35222,-1.09858 7.514,-8.52257 4.61977,-8.24098 4.71799,-8.58725 3.24414,-11.43737 -1.42874,-2.76287 -1.39446,-3.00621 0.57164,-4.05844 1.15033,-0.61564 2.19884,-0.97038 2.33003,-0.78832 0.97067,1.34714 6.59019,10.94185 6.59019,11.25204 0,0.21504 2.25,4.21383 5,8.88619 2.75,4.67237 5,8.76467 5,9.094 0,0.32933 -7.425,0.59879 -16.5,0.59879 l -16.5,0 z"
         style="fill:#ff0000"
         inkscape:connector-curvature="0" />
      <path
         id="path3009"
         d="m 310.49859,366.54076 -5.39413,-8.25 10.04228,-0.28642 c 5.52325,-0.15753 10.21449,-0.1142 10.42498,0.0963 0.42295,0.42293 -8.60993,16.69012 -9.26773,16.69012 -0.2262,0 -2.83862,-3.7125 -5.8054,-8.25 z"
         style="fill:#ff0000"
         inkscape:connector-curvature="0" />
      <path
         id="path3007"
         d="m 366.92147,368.11672 c -1.80604,-3.20428 -3.94504,-6.83846 -4.75334,-8.07596 l -1.46963,-2.25 10.13049,0 10.13049,0 -4.17583,6.75 c -6.41772,10.37388 -6.09633,10.25735 -9.86218,3.57596 z"
         style="fill:#ff0000"
         inkscape:connector-curvature="0" />
      <path
         id="path3005"
         d="m 329.19378,364.43873 c -2.21509,-1.19144 -2.16184,-1.3304 6.05801,-15.80734 l 8.29276,-14.60534 4.91184,8.63236 c 2.70152,4.74779 6.16291,10.63295 7.69199,13.07813 1.52908,2.44518 2.78014,4.98454 2.78014,5.64301 0,1.97905 -3.3299,2.68053 -4.58386,0.96564 -0.89148,-1.21918 -3.20879,-1.55443 -10.74445,-1.55443 -9.14999,0 -9.6689,0.11555 -10.88975,2.42499 -1.12727,2.13241 -1.55156,2.27996 -3.51668,1.22298 z"
         style="fill:#ff0000"
         inkscape:connector-curvature="0" />
    </g>
    <g
       id="g3055"
       transform="matrix(0.9993297,-0.03660818,0.03660818,0.9993297,-64.0896,81.80615)">
      <path
         transform="matrix(1.0884146,0,0,1.0884146,353.93725,231.91989)"
         d="m 117.85715,128.57143 c 0,64.69621 -52.446649,117.14286 -117.14286427,117.14286 -64.69621573,0 -117.14285573,-52.44665 -117.14285573,-117.14286 0,-64.696219 52.44664,-117.142864 117.14285573,-117.142864 64.69621527,0 117.14286427,52.446645 117.14286427,117.142864 z"
         sodipodi:ry="117.14286"
         sodipodi:rx="117.14286"
         sodipodi:cy="128.57143"
         sodipodi:cx="0.71428573"
         id="path3053"
         style="fill:none;stroke:none"
         sodipodi:type="arc" />
      <g
         inkscape:transform-center-y="-32.648998"
         inkscape:transform-center-x="-3.2791297"
         transform="matrix(0.99994128,-0.01083718,0.01083718,0.99994128,-203.42447,-6.1244103)"
         id="g3044">
        <g
           id="g3039"
           inkscape:transform-center-x="-4.726254"
           inkscape:transform-center-y="-33.270984"
           transform="matrix(0.96012909,0.27955703,-0.27955703,0.96012909,315.4191,-71.526632)">
          <path
             inkscape:connector-curvature="0"
             id="path3019"
             d="m 339.02505,429.44736 c -22.48485,-5.10023 -38.28106,-23.61614 -39.93291,-46.80834 l -0.51396,-7.21617 1.99966,7.39363 c 3.08629,11.41137 6.39316,17.68009 12.94726,24.54366 10.11964,10.59746 23.41857,15.37894 39.98504,14.37615 27.1768,-1.64505 46.06513,-18.83436 47.82955,-43.52726 0.7241,-10.13371 -0.85896,-17.92386 -5.62438,-27.67718 -13.03951,-22.19851 -39.55094,-30.6848 -61.96666,-20.89613 -7.8413,3.65779 -15.71059,11.0126 -19.0792,17.83183 -2.09763,4.24632 -2.47056,6.42854 -2.49328,14.58975 -0.0186,6.66411 0.39125,10.10298 1.3411,11.25377 1.7134,2.07583 0.6579,2.07715 -5.69115,0.007 l -5.04378,-1.64449 2.19174,-2.95014 2.19172,-2.95014 -2.36241,-1.92557 c -1.84153,-1.50101 -2.11014,-2.22781 -1.21826,-3.29639 0.87228,-1.0451 0.73765,-2.08368 -0.56656,-4.37088 -1.6087,-2.82116 -1.60926,-3.10094 -0.01,-4.69182 2.55847,-2.54423 2.1567,-3.28535 -3.28664,-6.06278 -5.49762,-2.80512 -5.96835,-1.23943 -5.96476,-2.0048 0.44221,0.72648 4.60154,4.4585 3.87274,5.47228 -1.0095,1.40426 -4.77434,6.16966 -4.87339,7.14051 -0.29532,2.89441 3.90805,4.95151 3.99472,5.83987 -0.14369,0.86361 -5.00281,6.16121 -4.62833,7.88916 0.68356,3.15411 9.04186,5.64325 -7.29705,8.10415 -5.24437,0.78989 -5.53073,0.66481 -5.94755,-12.74438 -0.28274,-9.09583 0.0917,-13.90413 1.65511,-21.25023 1.11129,-5.22193 2.31699,-10.22014 2.67936,-11.10714 0.48529,-1.18795 -1.16963,-2.97612 -6.28305,-6.78897 -5.94446,-4.43252 -8.13492,-6.78166 -8.12953,-8.71846 0.003,-1.16971 4.74605,-0.088 11.535,2.63072 4.17226,1.67086 8.00712,2.77923 8.52192,2.46306 1.26371,-0.77617 -0.53353,-4.13568 -4.53056,-8.46876 -6.70171,-7.26517 -12.47467,-15.18172 -12.46933,-17.09938 0.005,-1.91186 0.12563,-1.92424 3.19062,-0.32844 1.75179,0.91208 7.29314,4.76408 12.3141,8.56 13.17564,9.96098 14.67085,9.36621 8.35129,-3.322 -4.47749,-8.98978 -3.75335,-9.52171 4.47861,-3.28985 4.02799,3.04931 8.00881,5.54611 8.84627,5.54844 0.83746,0.002 4.47926,-1.32643 8.09287,-2.9528 20.11499,-9.05312 40.19742,-10.0014 58.72263,-2.77284 4.12054,1.60785 7.83447,2.92638 8.25318,2.93008 0.41871,0.003 3.4033,-1.78593 6.63241,-3.97695 3.22912,-2.19101 6.15403,-3.98287 6.4998,-3.98191 1.40634,0.004 0.43171,2.8064 -2.86592,8.24082 -5.61015,9.24537 -2.89769,11.69945 6.35888,5.75311 7.7402,-4.97223 12.11691,-7.21393 12.1141,-6.20471 -10e-4,0.4384 -2.28092,3.90451 -5.066,7.70246 -8.21284,11.19966 -5.54005,14.33973 6.90721,8.11479 11.52081,-5.76163 12.31785,-4.25202 2.54801,4.82598 l -6.57034,6.10507 2.04194,6.50571 c 8.21639,26.17774 5.94044,49.16778 -6.74516,68.13488 -13.91491,20.80511 -42.89454,32.52558 -66.93723,27.07197 z"
             style="fill:#ff0000"
             sodipodi:nodetypes="cscssssccsssccccssscscsscsssscscscscsssscsscscsscssscsscc" />
          <path
             id="path3003"
             d="m 329.92488,302.33757 c -2.63869,-1.0975 -7.12662,-2.38472 -9.97317,-2.86049 l -5.17556,-0.86507 0.40953,-3.50364 c 0.75134,-6.44228 -2.78948,-10.21234 -12.69454,-13.51469 -4.1375,-1.37944 -5.33676,-2.18111 -4.79652,-3.20632 1.6221,-3.07818 -0.0159,-6.59694 -4.96228,-10.66006 -2.7615,-2.2684 -4.98088,-4.46053 -4.93193,-4.87139 0.0488,-0.41087 4.07857,1.83887 8.95471,4.99942 8.88379,5.75814 18.81346,10.20612 24.22286,10.85058 2.53285,0.30165 3.03888,0.95062 4.11286,5.27359 1.54768,6.22973 4.39809,12.43853 7.82543,17.04546 1.46947,1.9752 2.47716,3.52757 2.23932,3.44971 -0.23786,-0.0779 -2.5914,-1.03952 -5.2301,-2.13702 z"
             style="fill:#ff0000"
             inkscape:connector-curvature="0" />
          <path
             id="path2999"
             d="m 330.89441,297.59689 c 1.2996,-3.27628 2.50949,-9.42022 2.68865,-13.65321 0.3248,-7.67374 0.33648,-7.70027 3.97372,-9.02566 4.54858,-1.65745 14.2389,-9.32303 21.37354,-16.90761 6.36162,-6.7628 8.2974,-7.15029 3.13178,-0.6269 -3.91358,4.94226 -5.04381,9.10179 -3.19806,11.76973 0.9531,1.37767 0.65183,2.03083 -1.55554,3.3725 -10.34348,6.2869 -13.60863,11.24508 -11.40763,17.32269 l 1.23111,3.39907 -4.71591,1.98394 c -2.59375,1.09117 -6.77883,3.41008 -9.30017,5.1531 l -4.58426,3.16916 2.3629,-5.95686 z"
             style="fill:#ff0000"
             inkscape:connector-curvature="0" />
        </g>
        <path
           inkscape:connector-curvature="0"
           style="fill:#ffffff"
           d="m 494.69153,345.11922 c 0.83325,-2.15347 -0.93568,-4.86671 -3.17697,-4.87295 -2.24129,-0.006 -4.02531,2.6971 -3.20406,4.85518 0.81494,2.14152 5.55418,2.15471 6.38103,0.0178 z"
           id="path3017" />
      </g>
    </g>
  </g>
</svg>
